<mxfile host="Electron" modified="2024-06-18T15:56:21.479Z" agent="Mozilla/5.0 (Windows NT 10.0; Win64; x64) AppleWebKit/537.36 (KHTML, like Gecko) draw.io/24.5.1 Chrome/124.0.6367.207 Electron/30.0.6 Safari/537.36" etag="x7_Ou26pv-s6Y-Cl8E2y" version="24.5.1" type="device">
  <diagram id="C5RBs43oDa-KdzZeNtuy" name="Page-1">
    <mxGraphModel dx="1956" dy="1182" grid="1" gridSize="10" guides="1" tooltips="1" connect="1" arrows="1" fold="1" page="1" pageScale="1" pageWidth="827" pageHeight="1169" math="0" shadow="0">
      <root>
        <mxCell id="WIyWlLk6GJQsqaUBKTNV-0" />
        <mxCell id="WIyWlLk6GJQsqaUBKTNV-1" parent="WIyWlLk6GJQsqaUBKTNV-0" />
        <mxCell id="NTlxEmdZ-35nOq0QX0Ut-4" value="" style="edgeStyle=orthogonalEdgeStyle;rounded=0;orthogonalLoop=1;jettySize=auto;html=1;" edge="1" parent="WIyWlLk6GJQsqaUBKTNV-1" source="NTlxEmdZ-35nOq0QX0Ut-0" target="NTlxEmdZ-35nOq0QX0Ut-3">
          <mxGeometry relative="1" as="geometry" />
        </mxCell>
        <mxCell id="NTlxEmdZ-35nOq0QX0Ut-0" value="&lt;font style=&quot;font-size: 30px;&quot;&gt;Start&lt;/font&gt;" style="ellipse;whiteSpace=wrap;html=1;" vertex="1" parent="WIyWlLk6GJQsqaUBKTNV-1">
          <mxGeometry x="310" y="10" width="80" height="70" as="geometry" />
        </mxCell>
        <mxCell id="NTlxEmdZ-35nOq0QX0Ut-6" value="" style="edgeStyle=orthogonalEdgeStyle;rounded=0;orthogonalLoop=1;jettySize=auto;html=1;" edge="1" parent="WIyWlLk6GJQsqaUBKTNV-1" source="NTlxEmdZ-35nOq0QX0Ut-3" target="NTlxEmdZ-35nOq0QX0Ut-5">
          <mxGeometry relative="1" as="geometry" />
        </mxCell>
        <mxCell id="NTlxEmdZ-35nOq0QX0Ut-10" value="&lt;font style=&quot;font-size: 30px;&quot;&gt;no&lt;/font&gt;" style="edgeLabel;html=1;align=center;verticalAlign=middle;resizable=0;points=[];" vertex="1" connectable="0" parent="NTlxEmdZ-35nOq0QX0Ut-6">
          <mxGeometry x="-0.1568" y="-1" relative="1" as="geometry">
            <mxPoint as="offset" />
          </mxGeometry>
        </mxCell>
        <mxCell id="NTlxEmdZ-35nOq0QX0Ut-8" value="" style="edgeStyle=orthogonalEdgeStyle;rounded=0;orthogonalLoop=1;jettySize=auto;html=1;" edge="1" parent="WIyWlLk6GJQsqaUBKTNV-1" source="NTlxEmdZ-35nOq0QX0Ut-3" target="NTlxEmdZ-35nOq0QX0Ut-7">
          <mxGeometry relative="1" as="geometry" />
        </mxCell>
        <mxCell id="NTlxEmdZ-35nOq0QX0Ut-9" value="&lt;font style=&quot;font-size: 30px;&quot;&gt;yes&lt;/font&gt;" style="edgeLabel;html=1;align=center;verticalAlign=middle;resizable=0;points=[];" vertex="1" connectable="0" parent="NTlxEmdZ-35nOq0QX0Ut-8">
          <mxGeometry x="-0.0714" y="2" relative="1" as="geometry">
            <mxPoint as="offset" />
          </mxGeometry>
        </mxCell>
        <mxCell id="NTlxEmdZ-35nOq0QX0Ut-3" value="&lt;font style=&quot;font-size: 30px;&quot;&gt;status equals 1?&lt;/font&gt;" style="rhombus;whiteSpace=wrap;html=1;" vertex="1" parent="WIyWlLk6GJQsqaUBKTNV-1">
          <mxGeometry x="265" y="170" width="170" height="180" as="geometry" />
        </mxCell>
        <mxCell id="NTlxEmdZ-35nOq0QX0Ut-105" value="" style="edgeStyle=orthogonalEdgeStyle;rounded=0;orthogonalLoop=1;jettySize=auto;html=1;" edge="1" parent="WIyWlLk6GJQsqaUBKTNV-1" source="NTlxEmdZ-35nOq0QX0Ut-5" target="NTlxEmdZ-35nOq0QX0Ut-104">
          <mxGeometry relative="1" as="geometry">
            <Array as="points">
              <mxPoint x="1320" y="3590" />
              <mxPoint x="1320" y="3590" />
            </Array>
          </mxGeometry>
        </mxCell>
        <mxCell id="NTlxEmdZ-35nOq0QX0Ut-5" value="&lt;font style=&quot;font-size: 30px;&quot;&gt;Return&lt;/font&gt;" style="whiteSpace=wrap;html=1;" vertex="1" parent="WIyWlLk6GJQsqaUBKTNV-1">
          <mxGeometry x="1260" y="230" width="120" height="60" as="geometry" />
        </mxCell>
        <mxCell id="NTlxEmdZ-35nOq0QX0Ut-12" value="" style="edgeStyle=orthogonalEdgeStyle;rounded=0;orthogonalLoop=1;jettySize=auto;html=1;" edge="1" parent="WIyWlLk6GJQsqaUBKTNV-1" source="NTlxEmdZ-35nOq0QX0Ut-7" target="NTlxEmdZ-35nOq0QX0Ut-11">
          <mxGeometry relative="1" as="geometry" />
        </mxCell>
        <mxCell id="NTlxEmdZ-35nOq0QX0Ut-7" value="&lt;font style=&quot;font-size: 30px;&quot;&gt;create variable strr and get Scrolledtext1&lt;/font&gt;" style="whiteSpace=wrap;html=1;" vertex="1" parent="WIyWlLk6GJQsqaUBKTNV-1">
          <mxGeometry x="145" y="500" width="410" height="90" as="geometry" />
        </mxCell>
        <mxCell id="NTlxEmdZ-35nOq0QX0Ut-14" value="" style="edgeStyle=orthogonalEdgeStyle;rounded=0;orthogonalLoop=1;jettySize=auto;html=1;" edge="1" parent="WIyWlLk6GJQsqaUBKTNV-1" source="NTlxEmdZ-35nOq0QX0Ut-11" target="NTlxEmdZ-35nOq0QX0Ut-13">
          <mxGeometry relative="1" as="geometry" />
        </mxCell>
        <mxCell id="NTlxEmdZ-35nOq0QX0Ut-11" value="&lt;font style=&quot;font-size: 30px;&quot;&gt;get function wel_bill()&lt;/font&gt;" style="whiteSpace=wrap;html=1;" vertex="1" parent="WIyWlLk6GJQsqaUBKTNV-1">
          <mxGeometry x="215" y="730" width="270" height="60" as="geometry" />
        </mxCell>
        <mxCell id="NTlxEmdZ-35nOq0QX0Ut-16" value="" style="edgeStyle=orthogonalEdgeStyle;rounded=0;orthogonalLoop=1;jettySize=auto;html=1;" edge="1" parent="WIyWlLk6GJQsqaUBKTNV-1" source="NTlxEmdZ-35nOq0QX0Ut-13" target="NTlxEmdZ-35nOq0QX0Ut-15">
          <mxGeometry relative="1" as="geometry" />
        </mxCell>
        <mxCell id="NTlxEmdZ-35nOq0QX0Ut-17" value="&lt;font style=&quot;font-size: 30px;&quot;&gt;yes&lt;/font&gt;" style="edgeLabel;html=1;align=center;verticalAlign=middle;resizable=0;points=[];" vertex="1" connectable="0" parent="NTlxEmdZ-35nOq0QX0Ut-16">
          <mxGeometry x="0.0889" y="-1" relative="1" as="geometry">
            <mxPoint as="offset" />
          </mxGeometry>
        </mxCell>
        <mxCell id="NTlxEmdZ-35nOq0QX0Ut-20" value="" style="edgeStyle=orthogonalEdgeStyle;rounded=0;orthogonalLoop=1;jettySize=auto;html=1;" edge="1" parent="WIyWlLk6GJQsqaUBKTNV-1" source="NTlxEmdZ-35nOq0QX0Ut-13" target="NTlxEmdZ-35nOq0QX0Ut-19">
          <mxGeometry relative="1" as="geometry" />
        </mxCell>
        <mxCell id="NTlxEmdZ-35nOq0QX0Ut-21" value="&lt;font style=&quot;font-size: 30px;&quot;&gt;no&lt;/font&gt;" style="edgeLabel;html=1;align=center;verticalAlign=middle;resizable=0;points=[];" vertex="1" connectable="0" parent="NTlxEmdZ-35nOq0QX0Ut-20">
          <mxGeometry x="-0.0867" y="1" relative="1" as="geometry">
            <mxPoint as="offset" />
          </mxGeometry>
        </mxCell>
        <mxCell id="NTlxEmdZ-35nOq0QX0Ut-13" value="&lt;font style=&quot;font-size: 30px;&quot;&gt;validate cust_name ==&quot;&quot;&lt;/font&gt;" style="rhombus;whiteSpace=wrap;html=1;" vertex="1" parent="WIyWlLk6GJQsqaUBKTNV-1">
          <mxGeometry x="240" y="880" width="220" height="140" as="geometry" />
        </mxCell>
        <mxCell id="NTlxEmdZ-35nOq0QX0Ut-15" value="&lt;font style=&quot;font-size: 30px;&quot;&gt;Show message (&quot;error&quot;,&quot;Por favor ingresar nombre del cliente&lt;/font&gt;&quot;)" style="shape=parallelogram;perimeter=parallelogramPerimeter;whiteSpace=wrap;html=1;fixedSize=1;" vertex="1" parent="WIyWlLk6GJQsqaUBKTNV-1">
          <mxGeometry x="660" y="895" width="470" height="110" as="geometry" />
        </mxCell>
        <mxCell id="NTlxEmdZ-35nOq0QX0Ut-23" value="" style="edgeStyle=orthogonalEdgeStyle;rounded=0;orthogonalLoop=1;jettySize=auto;html=1;" edge="1" parent="WIyWlLk6GJQsqaUBKTNV-1" source="NTlxEmdZ-35nOq0QX0Ut-19" target="NTlxEmdZ-35nOq0QX0Ut-22">
          <mxGeometry relative="1" as="geometry" />
        </mxCell>
        <mxCell id="NTlxEmdZ-35nOq0QX0Ut-24" value="&lt;font style=&quot;font-size: 30px;&quot;&gt;yes&lt;/font&gt;" style="edgeLabel;html=1;align=center;verticalAlign=middle;resizable=0;points=[];" vertex="1" connectable="0" parent="NTlxEmdZ-35nOq0QX0Ut-23">
          <mxGeometry x="-0.1139" y="-1" relative="1" as="geometry">
            <mxPoint as="offset" />
          </mxGeometry>
        </mxCell>
        <mxCell id="NTlxEmdZ-35nOq0QX0Ut-26" value="" style="edgeStyle=orthogonalEdgeStyle;rounded=0;orthogonalLoop=1;jettySize=auto;html=1;" edge="1" parent="WIyWlLk6GJQsqaUBKTNV-1" source="NTlxEmdZ-35nOq0QX0Ut-19" target="NTlxEmdZ-35nOq0QX0Ut-25">
          <mxGeometry relative="1" as="geometry" />
        </mxCell>
        <mxCell id="NTlxEmdZ-35nOq0QX0Ut-19" value="&lt;span style=&quot;font-size: 30px;&quot;&gt;validate cust_num ==&quot;&quot;&lt;/span&gt;" style="rhombus;whiteSpace=wrap;html=1;" vertex="1" parent="WIyWlLk6GJQsqaUBKTNV-1">
          <mxGeometry x="250" y="1130" width="200" height="190" as="geometry" />
        </mxCell>
        <mxCell id="NTlxEmdZ-35nOq0QX0Ut-22" value="&lt;font style=&quot;font-size: 30px;&quot;&gt;Show message (&quot;error&quot;,&quot;Por favor ingresar telÃ©fono del cliente&lt;/font&gt;&quot;)" style="shape=parallelogram;perimeter=parallelogramPerimeter;whiteSpace=wrap;html=1;fixedSize=1;" vertex="1" parent="WIyWlLk6GJQsqaUBKTNV-1">
          <mxGeometry x="680" y="1177.5" width="470" height="95" as="geometry" />
        </mxCell>
        <mxCell id="NTlxEmdZ-35nOq0QX0Ut-30" value="" style="edgeStyle=orthogonalEdgeStyle;rounded=0;orthogonalLoop=1;jettySize=auto;html=1;" edge="1" parent="WIyWlLk6GJQsqaUBKTNV-1" source="NTlxEmdZ-35nOq0QX0Ut-25" target="NTlxEmdZ-35nOq0QX0Ut-29">
          <mxGeometry relative="1" as="geometry" />
        </mxCell>
        <mxCell id="NTlxEmdZ-35nOq0QX0Ut-31" value="&lt;font style=&quot;font-size: 30px;&quot;&gt;yes&lt;/font&gt;" style="edgeLabel;html=1;align=center;verticalAlign=middle;resizable=0;points=[];" vertex="1" connectable="0" parent="NTlxEmdZ-35nOq0QX0Ut-30">
          <mxGeometry x="0.0265" y="3" relative="1" as="geometry">
            <mxPoint as="offset" />
          </mxGeometry>
        </mxCell>
        <mxCell id="NTlxEmdZ-35nOq0QX0Ut-33" value="" style="edgeStyle=orthogonalEdgeStyle;rounded=0;orthogonalLoop=1;jettySize=auto;html=1;" edge="1" parent="WIyWlLk6GJQsqaUBKTNV-1" source="NTlxEmdZ-35nOq0QX0Ut-25" target="NTlxEmdZ-35nOq0QX0Ut-32">
          <mxGeometry relative="1" as="geometry" />
        </mxCell>
        <mxCell id="NTlxEmdZ-35nOq0QX0Ut-25" value="&lt;font style=&quot;font-size: 30px;&quot;&gt;Validate cart&lt;/font&gt;" style="rhombus;whiteSpace=wrap;html=1;" vertex="1" parent="WIyWlLk6GJQsqaUBKTNV-1">
          <mxGeometry x="265" y="1470" width="170" height="195" as="geometry" />
        </mxCell>
        <mxCell id="NTlxEmdZ-35nOq0QX0Ut-29" value="&lt;font style=&quot;font-size: 30px;&quot;&gt;Show message (&quot;error&quot;,&quot;Agregar al carro de compras&quot;)&lt;/font&gt;" style="shape=parallelogram;perimeter=parallelogramPerimeter;whiteSpace=wrap;html=1;fixedSize=1;" vertex="1" parent="WIyWlLk6GJQsqaUBKTNV-1">
          <mxGeometry x="690" y="1513.75" width="520" height="107.5" as="geometry" />
        </mxCell>
        <mxCell id="NTlxEmdZ-35nOq0QX0Ut-35" value="" style="edgeStyle=orthogonalEdgeStyle;rounded=0;orthogonalLoop=1;jettySize=auto;html=1;" edge="1" parent="WIyWlLk6GJQsqaUBKTNV-1" source="NTlxEmdZ-35nOq0QX0Ut-32" target="NTlxEmdZ-35nOq0QX0Ut-34">
          <mxGeometry relative="1" as="geometry" />
        </mxCell>
        <mxCell id="NTlxEmdZ-35nOq0QX0Ut-36" value="&lt;font style=&quot;font-size: 30px;&quot;&gt;yes&lt;/font&gt;" style="edgeLabel;html=1;align=center;verticalAlign=middle;resizable=0;points=[];" vertex="1" connectable="0" parent="NTlxEmdZ-35nOq0QX0Ut-35">
          <mxGeometry x="-0.0456" y="2" relative="1" as="geometry">
            <mxPoint as="offset" />
          </mxGeometry>
        </mxCell>
        <mxCell id="NTlxEmdZ-35nOq0QX0Ut-40" value="" style="edgeStyle=orthogonalEdgeStyle;rounded=0;orthogonalLoop=1;jettySize=auto;html=1;" edge="1" parent="WIyWlLk6GJQsqaUBKTNV-1" source="NTlxEmdZ-35nOq0QX0Ut-32" target="NTlxEmdZ-35nOq0QX0Ut-39">
          <mxGeometry relative="1" as="geometry" />
        </mxCell>
        <mxCell id="NTlxEmdZ-35nOq0QX0Ut-41" value="&lt;font style=&quot;font-size: 30px;&quot;&gt;no&lt;/font&gt;" style="edgeLabel;html=1;align=center;verticalAlign=middle;resizable=0;points=[];" vertex="1" connectable="0" parent="NTlxEmdZ-35nOq0QX0Ut-40">
          <mxGeometry x="-0.1277" y="-2" relative="1" as="geometry">
            <mxPoint as="offset" />
          </mxGeometry>
        </mxCell>
        <mxCell id="NTlxEmdZ-35nOq0QX0Ut-32" value="&lt;span style=&quot;font-size: 30px;&quot;&gt;Total is equals -1?&lt;/span&gt;" style="rhombus;whiteSpace=wrap;html=1;" vertex="1" parent="WIyWlLk6GJQsqaUBKTNV-1">
          <mxGeometry x="265" y="1745" width="170" height="195" as="geometry" />
        </mxCell>
        <mxCell id="NTlxEmdZ-35nOq0QX0Ut-34" value="&lt;font style=&quot;font-size: 30px;&quot;&gt;run function total_bill() and gen_bill()&lt;/font&gt;" style="whiteSpace=wrap;html=1;" vertex="1" parent="WIyWlLk6GJQsqaUBKTNV-1">
          <mxGeometry x="720" y="1801.25" width="300" height="82.5" as="geometry" />
        </mxCell>
        <mxCell id="NTlxEmdZ-35nOq0QX0Ut-43" value="" style="edgeStyle=orthogonalEdgeStyle;rounded=0;orthogonalLoop=1;jettySize=auto;html=1;" edge="1" parent="WIyWlLk6GJQsqaUBKTNV-1" source="NTlxEmdZ-35nOq0QX0Ut-39" target="NTlxEmdZ-35nOq0QX0Ut-42">
          <mxGeometry relative="1" as="geometry" />
        </mxCell>
        <mxCell id="NTlxEmdZ-35nOq0QX0Ut-39" value="&lt;font style=&quot;font-size: 30px;&quot;&gt;Insert cust_name in variable name_message&lt;/font&gt;" style="whiteSpace=wrap;html=1;" vertex="1" parent="WIyWlLk6GJQsqaUBKTNV-1">
          <mxGeometry x="160" y="2150" width="380" height="92.5" as="geometry" />
        </mxCell>
        <mxCell id="NTlxEmdZ-35nOq0QX0Ut-45" value="" style="edgeStyle=orthogonalEdgeStyle;rounded=0;orthogonalLoop=1;jettySize=auto;html=1;" edge="1" parent="WIyWlLk6GJQsqaUBKTNV-1" source="NTlxEmdZ-35nOq0QX0Ut-42" target="NTlxEmdZ-35nOq0QX0Ut-44">
          <mxGeometry relative="1" as="geometry" />
        </mxCell>
        <mxCell id="NTlxEmdZ-35nOq0QX0Ut-42" value="&lt;font style=&quot;font-size: 30px;&quot;&gt;disable name_message&lt;/font&gt;" style="whiteSpace=wrap;html=1;" vertex="1" parent="WIyWlLk6GJQsqaUBKTNV-1">
          <mxGeometry x="225" y="2370" width="250" height="101.25" as="geometry" />
        </mxCell>
        <mxCell id="NTlxEmdZ-35nOq0QX0Ut-47" value="" style="edgeStyle=orthogonalEdgeStyle;rounded=0;orthogonalLoop=1;jettySize=auto;html=1;" edge="1" parent="WIyWlLk6GJQsqaUBKTNV-1" source="NTlxEmdZ-35nOq0QX0Ut-44" target="NTlxEmdZ-35nOq0QX0Ut-46">
          <mxGeometry relative="1" as="geometry" />
        </mxCell>
        <mxCell id="NTlxEmdZ-35nOq0QX0Ut-44" value="&lt;span style=&quot;font-size: 30px;&quot;&gt;Insert cust_num in variable num_message&lt;/span&gt;" style="whiteSpace=wrap;html=1;" vertex="1" parent="WIyWlLk6GJQsqaUBKTNV-1">
          <mxGeometry x="150" y="2571.88" width="400" height="78.12" as="geometry" />
        </mxCell>
        <mxCell id="NTlxEmdZ-35nOq0QX0Ut-49" value="" style="edgeStyle=orthogonalEdgeStyle;rounded=0;orthogonalLoop=1;jettySize=auto;html=1;" edge="1" parent="WIyWlLk6GJQsqaUBKTNV-1" source="NTlxEmdZ-35nOq0QX0Ut-46" target="NTlxEmdZ-35nOq0QX0Ut-48">
          <mxGeometry relative="1" as="geometry" />
        </mxCell>
        <mxCell id="NTlxEmdZ-35nOq0QX0Ut-46" value="&lt;span style=&quot;font-size: 30px;&quot;&gt;disable num_message&lt;/span&gt;" style="whiteSpace=wrap;html=1;" vertex="1" parent="WIyWlLk6GJQsqaUBKTNV-1">
          <mxGeometry x="215" y="2740" width="270" height="90.94" as="geometry" />
        </mxCell>
        <mxCell id="NTlxEmdZ-35nOq0QX0Ut-51" value="" style="edgeStyle=orthogonalEdgeStyle;rounded=0;orthogonalLoop=1;jettySize=auto;html=1;" edge="1" parent="WIyWlLk6GJQsqaUBKTNV-1" source="NTlxEmdZ-35nOq0QX0Ut-48" target="NTlxEmdZ-35nOq0QX0Ut-50">
          <mxGeometry relative="1" as="geometry" />
        </mxCell>
        <mxCell id="NTlxEmdZ-35nOq0QX0Ut-48" value="&lt;div style=&quot;font-size: 30px;&quot;&gt;&lt;font style=&quot;font-size: 30px;&quot;&gt;configurate variable cust_new_bill include set() function set for search in ramdom number&lt;/font&gt;&lt;/div&gt;" style="whiteSpace=wrap;html=1;" vertex="1" parent="WIyWlLk6GJQsqaUBKTNV-1">
          <mxGeometry x="155" y="2920" width="390" height="140" as="geometry" />
        </mxCell>
        <mxCell id="NTlxEmdZ-35nOq0QX0Ut-53" value="" style="edgeStyle=orthogonalEdgeStyle;rounded=0;orthogonalLoop=1;jettySize=auto;html=1;" edge="1" parent="WIyWlLk6GJQsqaUBKTNV-1" source="NTlxEmdZ-35nOq0QX0Ut-50" target="NTlxEmdZ-35nOq0QX0Ut-52">
          <mxGeometry relative="1" as="geometry" />
        </mxCell>
        <mxCell id="NTlxEmdZ-35nOq0QX0Ut-50" value="&lt;span style=&quot;font-size: 30px;&quot;&gt;Configurate the variable num_boleta include set() function set for search the number random&lt;/span&gt;" style="whiteSpace=wrap;html=1;" vertex="1" parent="WIyWlLk6GJQsqaUBKTNV-1">
          <mxGeometry x="160" y="3140.39" width="380" height="149.61" as="geometry" />
        </mxCell>
        <mxCell id="NTlxEmdZ-35nOq0QX0Ut-55" value="" style="edgeStyle=orthogonalEdgeStyle;rounded=0;orthogonalLoop=1;jettySize=auto;html=1;" edge="1" parent="WIyWlLk6GJQsqaUBKTNV-1" source="NTlxEmdZ-35nOq0QX0Ut-52" target="NTlxEmdZ-35nOq0QX0Ut-54">
          <mxGeometry relative="1" as="geometry" />
        </mxCell>
        <mxCell id="NTlxEmdZ-35nOq0QX0Ut-52" value="&lt;font style=&quot;font-size: 30px;&quot;&gt;create self.num_boleta = num_boleta&lt;/font&gt;" style="whiteSpace=wrap;html=1;" vertex="1" parent="WIyWlLk6GJQsqaUBKTNV-1">
          <mxGeometry x="180" y="3400" width="340" height="114.81" as="geometry" />
        </mxCell>
        <mxCell id="NTlxEmdZ-35nOq0QX0Ut-57" value="" style="edgeStyle=orthogonalEdgeStyle;rounded=0;orthogonalLoop=1;jettySize=auto;html=1;" edge="1" parent="WIyWlLk6GJQsqaUBKTNV-1" source="NTlxEmdZ-35nOq0QX0Ut-54" target="NTlxEmdZ-35nOq0QX0Ut-56">
          <mxGeometry relative="1" as="geometry" />
        </mxCell>
        <mxCell id="NTlxEmdZ-35nOq0QX0Ut-54" value="&lt;font style=&quot;font-size: 30px;&quot;&gt;Create bill_message variable with function insert() and concatenate variable num_boleta&lt;/font&gt;" style="whiteSpace=wrap;html=1;" vertex="1" parent="WIyWlLk6GJQsqaUBKTNV-1">
          <mxGeometry x="135" y="3610" width="430" height="170" as="geometry" />
        </mxCell>
        <mxCell id="NTlxEmdZ-35nOq0QX0Ut-59" value="" style="edgeStyle=orthogonalEdgeStyle;rounded=0;orthogonalLoop=1;jettySize=auto;html=1;" edge="1" parent="WIyWlLk6GJQsqaUBKTNV-1" source="NTlxEmdZ-35nOq0QX0Ut-56" target="NTlxEmdZ-35nOq0QX0Ut-58">
          <mxGeometry relative="1" as="geometry" />
        </mxCell>
        <mxCell id="NTlxEmdZ-35nOq0QX0Ut-56" value="&lt;span style=&quot;font-size: 30px;&quot;&gt;disable bill_message&lt;/span&gt;" style="whiteSpace=wrap;html=1;" vertex="1" parent="WIyWlLk6GJQsqaUBKTNV-1">
          <mxGeometry x="170" y="3920" width="360" height="60" as="geometry" />
        </mxCell>
        <mxCell id="NTlxEmdZ-35nOq0QX0Ut-61" value="" style="edgeStyle=orthogonalEdgeStyle;rounded=0;orthogonalLoop=1;jettySize=auto;html=1;" edge="1" parent="WIyWlLk6GJQsqaUBKTNV-1" source="NTlxEmdZ-35nOq0QX0Ut-58" target="NTlxEmdZ-35nOq0QX0Ut-60">
          <mxGeometry relative="1" as="geometry" />
        </mxCell>
        <mxCell id="NTlxEmdZ-35nOq0QX0Ut-58" value="&lt;font style=&quot;font-size: 30px;&quot;&gt;Configure the variable bill_date include the set() function set to find current date&lt;/font&gt;" style="whiteSpace=wrap;html=1;" vertex="1" parent="WIyWlLk6GJQsqaUBKTNV-1">
          <mxGeometry x="205" y="4050" width="290" height="190" as="geometry" />
        </mxCell>
        <mxCell id="NTlxEmdZ-35nOq0QX0Ut-63" value="" style="edgeStyle=orthogonalEdgeStyle;rounded=0;orthogonalLoop=1;jettySize=auto;html=1;" edge="1" parent="WIyWlLk6GJQsqaUBKTNV-1" source="NTlxEmdZ-35nOq0QX0Ut-60" target="NTlxEmdZ-35nOq0QX0Ut-62">
          <mxGeometry relative="1" as="geometry" />
        </mxCell>
        <mxCell id="NTlxEmdZ-35nOq0QX0Ut-60" value="&lt;font style=&quot;font-size: 30px;&quot;&gt;Configure Variable Bill_Date_Message creating the insert function () obtaining Variable Bill_Date&lt;/font&gt;" style="whiteSpace=wrap;html=1;" vertex="1" parent="WIyWlLk6GJQsqaUBKTNV-1">
          <mxGeometry x="125" y="4370" width="450" height="185" as="geometry" />
        </mxCell>
        <mxCell id="NTlxEmdZ-35nOq0QX0Ut-65" value="" style="edgeStyle=orthogonalEdgeStyle;rounded=0;orthogonalLoop=1;jettySize=auto;html=1;" edge="1" parent="WIyWlLk6GJQsqaUBKTNV-1" source="NTlxEmdZ-35nOq0QX0Ut-62" target="NTlxEmdZ-35nOq0QX0Ut-64">
          <mxGeometry relative="1" as="geometry" />
        </mxCell>
        <mxCell id="NTlxEmdZ-35nOq0QX0Ut-62" value="&lt;font style=&quot;font-size: 30px;&quot;&gt;disable bill_date_message&lt;/font&gt;" style="whiteSpace=wrap;html=1;" vertex="1" parent="WIyWlLk6GJQsqaUBKTNV-1">
          <mxGeometry x="220" y="4720" width="260" height="107.5" as="geometry" />
        </mxCell>
        <mxCell id="NTlxEmdZ-35nOq0QX0Ut-70" value="" style="edgeStyle=orthogonalEdgeStyle;rounded=0;orthogonalLoop=1;jettySize=auto;html=1;" edge="1" parent="WIyWlLk6GJQsqaUBKTNV-1" source="NTlxEmdZ-35nOq0QX0Ut-64" target="NTlxEmdZ-35nOq0QX0Ut-69">
          <mxGeometry relative="1" as="geometry" />
        </mxCell>
        <mxCell id="NTlxEmdZ-35nOq0QX0Ut-76" value="" style="edgeStyle=orthogonalEdgeStyle;rounded=0;orthogonalLoop=1;jettySize=auto;html=1;" edge="1" parent="WIyWlLk6GJQsqaUBKTNV-1" source="NTlxEmdZ-35nOq0QX0Ut-64" target="NTlxEmdZ-35nOq0QX0Ut-75">
          <mxGeometry relative="1" as="geometry" />
        </mxCell>
        <mxCell id="NTlxEmdZ-35nOq0QX0Ut-64" value="&lt;font style=&quot;font-size: 30px;&quot;&gt;conexiÃ³n a base de datos&lt;/font&gt;" style="whiteSpace=wrap;html=1;" vertex="1" parent="WIyWlLk6GJQsqaUBKTNV-1">
          <mxGeometry x="220" y="4907.5" width="260" height="107.5" as="geometry" />
        </mxCell>
        <mxCell id="NTlxEmdZ-35nOq0QX0Ut-78" value="" style="edgeStyle=orthogonalEdgeStyle;rounded=0;orthogonalLoop=1;jettySize=auto;html=1;entryX=1;entryY=0.5;entryDx=0;entryDy=0;" edge="1" parent="WIyWlLk6GJQsqaUBKTNV-1" source="NTlxEmdZ-35nOq0QX0Ut-68" target="NTlxEmdZ-35nOq0QX0Ut-75">
          <mxGeometry relative="1" as="geometry">
            <mxPoint x="930" y="5071.25" as="targetPoint" />
            <Array as="points">
              <mxPoint x="930" y="5161" />
            </Array>
          </mxGeometry>
        </mxCell>
        <mxCell id="NTlxEmdZ-35nOq0QX0Ut-92" value="" style="edgeStyle=orthogonalEdgeStyle;rounded=0;orthogonalLoop=1;jettySize=auto;html=1;" edge="1" parent="WIyWlLk6GJQsqaUBKTNV-1" source="NTlxEmdZ-35nOq0QX0Ut-68" target="NTlxEmdZ-35nOq0QX0Ut-89">
          <mxGeometry relative="1" as="geometry">
            <mxPoint x="1045" y="4961.25" as="targetPoint" />
            <Array as="points">
              <mxPoint x="1100" y="4961" />
              <mxPoint x="1100" y="5858" />
            </Array>
          </mxGeometry>
        </mxCell>
        <mxCell id="NTlxEmdZ-35nOq0QX0Ut-68" value="&lt;font style=&quot;font-size: 30px;&quot;&gt;store&lt;/font&gt;" style="strokeWidth=2;html=1;shape=mxgraph.flowchart.database;whiteSpace=wrap;" vertex="1" parent="WIyWlLk6GJQsqaUBKTNV-1">
          <mxGeometry x="890" y="4910.63" width="90" height="101.25" as="geometry" />
        </mxCell>
        <mxCell id="NTlxEmdZ-35nOq0QX0Ut-71" value="" style="edgeStyle=orthogonalEdgeStyle;rounded=0;orthogonalLoop=1;jettySize=auto;html=1;" edge="1" parent="WIyWlLk6GJQsqaUBKTNV-1" source="NTlxEmdZ-35nOq0QX0Ut-69" target="NTlxEmdZ-35nOq0QX0Ut-68">
          <mxGeometry relative="1" as="geometry" />
        </mxCell>
        <mxCell id="NTlxEmdZ-35nOq0QX0Ut-69" value="&lt;font style=&quot;font-size: 30px;&quot;&gt;run query&lt;/font&gt;" style="whiteSpace=wrap;html=1;" vertex="1" parent="WIyWlLk6GJQsqaUBKTNV-1">
          <mxGeometry x="630" y="4931.25" width="170" height="60" as="geometry" />
        </mxCell>
        <mxCell id="NTlxEmdZ-35nOq0QX0Ut-80" value="" style="edgeStyle=orthogonalEdgeStyle;rounded=0;orthogonalLoop=1;jettySize=auto;html=1;" edge="1" parent="WIyWlLk6GJQsqaUBKTNV-1" source="NTlxEmdZ-35nOq0QX0Ut-75" target="NTlxEmdZ-35nOq0QX0Ut-79">
          <mxGeometry relative="1" as="geometry" />
        </mxCell>
        <mxCell id="NTlxEmdZ-35nOq0QX0Ut-75" value="&lt;font style=&quot;font-size: 30px;&quot;&gt;Close data base&lt;/font&gt;" style="whiteSpace=wrap;html=1;" vertex="1" parent="WIyWlLk6GJQsqaUBKTNV-1">
          <mxGeometry x="265" y="5120" width="170" height="81.25" as="geometry" />
        </mxCell>
        <mxCell id="NTlxEmdZ-35nOq0QX0Ut-82" value="" style="edgeStyle=orthogonalEdgeStyle;rounded=0;orthogonalLoop=1;jettySize=auto;html=1;" edge="1" parent="WIyWlLk6GJQsqaUBKTNV-1" source="NTlxEmdZ-35nOq0QX0Ut-79" target="NTlxEmdZ-35nOq0QX0Ut-81">
          <mxGeometry relative="1" as="geometry" />
        </mxCell>
        <mxCell id="NTlxEmdZ-35nOq0QX0Ut-79" value="&lt;font style=&quot;font-size: 30px;&quot;&gt;start for cart&amp;nbsp;&lt;/font&gt;" style="whiteSpace=wrap;html=1;" vertex="1" parent="WIyWlLk6GJQsqaUBKTNV-1">
          <mxGeometry x="270" y="5291.88" width="160" height="108.13" as="geometry" />
        </mxCell>
        <mxCell id="NTlxEmdZ-35nOq0QX0Ut-84" value="" style="edgeStyle=orthogonalEdgeStyle;rounded=0;orthogonalLoop=1;jettySize=auto;html=1;" edge="1" parent="WIyWlLk6GJQsqaUBKTNV-1" source="NTlxEmdZ-35nOq0QX0Ut-81" target="NTlxEmdZ-35nOq0QX0Ut-83">
          <mxGeometry relative="1" as="geometry" />
        </mxCell>
        <mxCell id="NTlxEmdZ-35nOq0QX0Ut-81" value="&lt;font style=&quot;font-size: 30px;&quot;&gt;create query&amp;nbsp;&lt;/font&gt;" style="whiteSpace=wrap;html=1;" vertex="1" parent="WIyWlLk6GJQsqaUBKTNV-1">
          <mxGeometry x="270" y="5490" width="160" height="74.08" as="geometry" />
        </mxCell>
        <mxCell id="NTlxEmdZ-35nOq0QX0Ut-86" value="" style="edgeStyle=orthogonalEdgeStyle;rounded=0;orthogonalLoop=1;jettySize=auto;html=1;" edge="1" parent="WIyWlLk6GJQsqaUBKTNV-1" source="NTlxEmdZ-35nOq0QX0Ut-83" target="NTlxEmdZ-35nOq0QX0Ut-85">
          <mxGeometry relative="1" as="geometry" />
        </mxCell>
        <mxCell id="NTlxEmdZ-35nOq0QX0Ut-90" value="" style="edgeStyle=orthogonalEdgeStyle;rounded=0;orthogonalLoop=1;jettySize=auto;html=1;" edge="1" parent="WIyWlLk6GJQsqaUBKTNV-1" source="NTlxEmdZ-35nOq0QX0Ut-83" target="NTlxEmdZ-35nOq0QX0Ut-89">
          <mxGeometry relative="1" as="geometry" />
        </mxCell>
        <mxCell id="NTlxEmdZ-35nOq0QX0Ut-83" value="&lt;font style=&quot;font-size: 30px;&quot;&gt;conexiÃ³n data base&amp;nbsp;&lt;/font&gt;" style="whiteSpace=wrap;html=1;" vertex="1" parent="WIyWlLk6GJQsqaUBKTNV-1">
          <mxGeometry x="240" y="5631.11" width="220" height="85.92" as="geometry" />
        </mxCell>
        <mxCell id="NTlxEmdZ-35nOq0QX0Ut-88" value="" style="edgeStyle=orthogonalEdgeStyle;rounded=0;orthogonalLoop=1;jettySize=auto;html=1;entryX=0.993;entryY=0.673;entryDx=0;entryDy=0;entryPerimeter=0;exitX=1;exitY=0.5;exitDx=0;exitDy=0;" edge="1" parent="WIyWlLk6GJQsqaUBKTNV-1" source="NTlxEmdZ-35nOq0QX0Ut-85" target="NTlxEmdZ-35nOq0QX0Ut-68">
          <mxGeometry relative="1" as="geometry">
            <mxPoint x="860" y="5644.080434782609" as="sourcePoint" />
            <mxPoint x="982.3599999999999" y="4979.298750000001" as="targetPoint" />
            <Array as="points">
              <mxPoint x="1030" y="5674" />
              <mxPoint x="1030" y="4979" />
            </Array>
          </mxGeometry>
        </mxCell>
        <mxCell id="NTlxEmdZ-35nOq0QX0Ut-85" value="&lt;font style=&quot;font-size: 30px;&quot;&gt;run query&lt;/font&gt;" style="whiteSpace=wrap;html=1;" vertex="1" parent="WIyWlLk6GJQsqaUBKTNV-1">
          <mxGeometry x="680" y="5644.08" width="160" height="60" as="geometry" />
        </mxCell>
        <mxCell id="NTlxEmdZ-35nOq0QX0Ut-95" value="" style="edgeStyle=orthogonalEdgeStyle;rounded=0;orthogonalLoop=1;jettySize=auto;html=1;" edge="1" parent="WIyWlLk6GJQsqaUBKTNV-1" source="NTlxEmdZ-35nOq0QX0Ut-89" target="NTlxEmdZ-35nOq0QX0Ut-94">
          <mxGeometry relative="1" as="geometry" />
        </mxCell>
        <mxCell id="NTlxEmdZ-35nOq0QX0Ut-89" value="&lt;font style=&quot;font-size: 30px;&quot;&gt;Close data base&lt;/font&gt;" style="whiteSpace=wrap;html=1;" vertex="1" parent="WIyWlLk6GJQsqaUBKTNV-1">
          <mxGeometry x="255" y="5810" width="190" height="95.92" as="geometry" />
        </mxCell>
        <mxCell id="NTlxEmdZ-35nOq0QX0Ut-97" value="" style="edgeStyle=orthogonalEdgeStyle;rounded=0;orthogonalLoop=1;jettySize=auto;html=1;" edge="1" parent="WIyWlLk6GJQsqaUBKTNV-1" source="NTlxEmdZ-35nOq0QX0Ut-94" target="NTlxEmdZ-35nOq0QX0Ut-96">
          <mxGeometry relative="1" as="geometry" />
        </mxCell>
        <mxCell id="NTlxEmdZ-35nOq0QX0Ut-94" value="&lt;font style=&quot;font-size: 30px;&quot;&gt;end for cart&lt;/font&gt;" style="whiteSpace=wrap;html=1;" vertex="1" parent="WIyWlLk6GJQsqaUBKTNV-1">
          <mxGeometry x="255" y="6000" width="190" height="66.12" as="geometry" />
        </mxCell>
        <mxCell id="NTlxEmdZ-35nOq0QX0Ut-99" value="" style="edgeStyle=orthogonalEdgeStyle;rounded=0;orthogonalLoop=1;jettySize=auto;html=1;" edge="1" parent="WIyWlLk6GJQsqaUBKTNV-1" source="NTlxEmdZ-35nOq0QX0Ut-96" target="NTlxEmdZ-35nOq0QX0Ut-98">
          <mxGeometry relative="1" as="geometry" />
        </mxCell>
        <mxCell id="NTlxEmdZ-35nOq0QX0Ut-96" value="&lt;font style=&quot;font-size: 30px;&quot;&gt;Show message (&quot;informaciÃ³n&quot;,&quot;Venta generada&quot;)&lt;/font&gt;" style="shape=parallelogram;perimeter=parallelogramPerimeter;whiteSpace=wrap;html=1;fixedSize=1;" vertex="1" parent="WIyWlLk6GJQsqaUBKTNV-1">
          <mxGeometry x="180" y="6140" width="340" height="130.82" as="geometry" />
        </mxCell>
        <mxCell id="NTlxEmdZ-35nOq0QX0Ut-101" value="" style="edgeStyle=orthogonalEdgeStyle;rounded=0;orthogonalLoop=1;jettySize=auto;html=1;" edge="1" parent="WIyWlLk6GJQsqaUBKTNV-1" source="NTlxEmdZ-35nOq0QX0Ut-98" target="NTlxEmdZ-35nOq0QX0Ut-100">
          <mxGeometry relative="1" as="geometry" />
        </mxCell>
        <mxCell id="NTlxEmdZ-35nOq0QX0Ut-98" value="&lt;font style=&quot;font-size: 30px;&quot;&gt;Disabled entry1 and entry2&lt;/font&gt;" style="whiteSpace=wrap;html=1;" vertex="1" parent="WIyWlLk6GJQsqaUBKTNV-1">
          <mxGeometry x="240" y="6380" width="220" height="83.77" as="geometry" />
        </mxCell>
        <mxCell id="NTlxEmdZ-35nOq0QX0Ut-103" value="" style="edgeStyle=orthogonalEdgeStyle;rounded=0;orthogonalLoop=1;jettySize=auto;html=1;entryX=0;entryY=0.5;entryDx=0;entryDy=0;" edge="1" parent="WIyWlLk6GJQsqaUBKTNV-1" source="NTlxEmdZ-35nOq0QX0Ut-100" target="NTlxEmdZ-35nOq0QX0Ut-104">
          <mxGeometry relative="1" as="geometry">
            <mxPoint x="350" y="6820" as="targetPoint" />
            <Array as="points">
              <mxPoint x="350" y="6860" />
            </Array>
          </mxGeometry>
        </mxCell>
        <mxCell id="NTlxEmdZ-35nOq0QX0Ut-100" value="&lt;font style=&quot;font-size: 30px;&quot;&gt;change the state variable&lt;/font&gt;" style="whiteSpace=wrap;html=1;" vertex="1" parent="WIyWlLk6GJQsqaUBKTNV-1">
          <mxGeometry x="240" y="6555.66" width="220" height="114.34" as="geometry" />
        </mxCell>
        <mxCell id="NTlxEmdZ-35nOq0QX0Ut-104" value="&lt;font style=&quot;font-size: 30px;&quot;&gt;End&lt;/font&gt;" style="ellipse;whiteSpace=wrap;html=1;" vertex="1" parent="WIyWlLk6GJQsqaUBKTNV-1">
          <mxGeometry x="1310" y="6820" width="140" height="100" as="geometry" />
        </mxCell>
      </root>
    </mxGraphModel>
  </diagram>
</mxfile>
